<svg width="34" height="32" viewBox="0 0 34 32" fill="none" xmlns="http://www.w3.org/2000/svg">
<path d="M11.4752 1.75781H5.15893C4.32167 1.75867 3.51893 2.09154 2.92675 2.68341C2.33457 3.27529 2.00129 4.07786 2 4.91512V27.0227C2 28.766 3.41406 30.18 5.15893 30.18H11.4752C12.3121 30.1788 13.1145 29.8457 13.7063 29.2539C14.2981 28.662 14.6312 27.8597 14.6325 27.0227V4.91512C14.6312 4.07814 14.2981 3.27582 13.7063 2.68399C13.1145 2.09216 12.3121 1.7591 11.4752 1.75781Z" stroke="#565656" stroke-width="2.5" stroke-linecap="round" stroke-linejoin="round"/>
<path d="M14.6325 9.40062L19.6854 28.3493C19.9046 29.1568 20.4348 29.8446 21.1601 30.2619C21.8853 30.6792 22.7464 30.7921 23.5546 30.5758L29.6649 28.9963C30.4732 28.7783 31.1617 28.2483 31.5792 27.5227C31.9968 26.7972 32.1091 25.9355 31.8914 25.1272L26.1752 3.65196C25.9572 2.84373 25.4271 2.15516 24.7016 1.73764C23.976 1.32012 23.1143 1.20784 22.306 1.42547L16.2119 3.05196C15.5535 3.23196 14.973 3.61953 14.553 4.15791M8.31623 24.7234C8.96285 24.7234 9.583 24.4665 10.0402 24.0093C10.4975 23.552 10.7543 22.9319 10.7543 22.2853C10.7543 21.6386 10.4975 21.0185 10.0402 20.5612C9.583 20.104 8.96285 19.8471 8.31623 19.8471C7.6696 19.8471 7.04945 20.104 6.59222 20.5612C6.13498 21.0185 5.87811 21.6386 5.87811 22.2853C5.87811 22.9319 6.13498 23.552 6.59222 24.0093C7.04945 24.4665 7.6696 24.7234 8.31623 24.7234Z" stroke="#565656" stroke-width="2.5" stroke-linecap="round" stroke-linejoin="round"/>
<path d="M24.5649 24.4998C25.2109 24.4998 25.8304 24.2432 26.2872 23.7864C26.744 23.3296 27.0006 22.7101 27.0006 22.0641C27.0006 21.4181 26.744 20.7986 26.2872 20.3418C25.8304 19.885 25.2109 19.6284 24.5649 19.6284C23.9189 19.6284 23.2994 19.885 22.8426 20.3418C22.3858 20.7986 22.1292 21.4181 22.1292 22.0641C22.1292 22.7101 22.3858 23.3296 22.8426 23.7864C23.2994 24.2432 23.9189 24.4998 24.5649 24.4998Z" stroke="#565656" stroke-width="2.5" stroke-linecap="round" stroke-linejoin="round"/>
</svg>
