<svg width="34" height="34" viewBox="0 0 34 34" fill="none" xmlns="http://www.w3.org/2000/svg">
<path d="M32 20.1818H25.6364C24.1897 20.1818 22.8023 20.7565 21.7794 21.7794C20.7565 22.8023 20.1818 24.1897 20.1818 25.6364V32M9.27273 9.27273H22.9091M9.27273 16.5455H18.3636M24.7273 2H9.27273C7.34388 2 5.49403 2.76623 4.13013 4.13013C2.76623 5.49403 2 7.34388 2 9.27273V24.7273C2 26.6561 2.76623 28.506 4.13013 29.8699C5.49403 31.2338 7.34388 32 9.27273 32H21.7145C22.6698 32 23.6158 31.8119 24.4984 31.4462C25.3809 31.0806 26.1828 30.5447 26.8582 29.8691L29.8691 26.8582C30.5447 26.1828 31.0806 25.3809 31.4462 24.4984C31.8119 23.6158 32 22.6698 32 21.7145V9.27273C32 7.34388 31.2338 5.49403 29.8699 4.13013C28.506 2.76623 26.6561 2 24.7273 2Z" stroke="#565656" stroke-width="3" stroke-linecap="round" stroke-linejoin="round"/>
</svg>
