<svg width="34" height="30" viewBox="0 0 34 30" fill="none" xmlns="http://www.w3.org/2000/svg">
<path d="M20 10.5H26M20 15.75H24.5" stroke="#565656" stroke-width="2.75" stroke-linecap="round" stroke-linejoin="round"/>
<path d="M24.5 1.5H9.5C5.35786 1.5 2 4.85786 2 9V21C2 25.1421 5.35786 28.5 9.5 28.5H24.5C28.6421 28.5 32 25.1421 32 21V9C32 4.85786 28.6421 1.5 24.5 1.5Z" stroke="#565656" stroke-width="2.75" stroke-linecap="round" stroke-linejoin="round"/>
<path d="M6.5 21C8.312 17.1285 15.068 16.875 17 21M14.75 10.5C14.75 11.2956 14.4339 12.0587 13.8713 12.6213C13.3087 13.1839 12.5456 13.5 11.75 13.5C10.9544 13.5 10.1913 13.1839 9.62868 12.6213C9.06607 12.0587 8.75 11.2956 8.75 10.5C8.75 9.70435 9.06607 8.94129 9.62868 8.37868C10.1913 7.81607 10.9544 7.5 11.75 7.5C12.5456 7.5 13.3087 7.81607 13.8713 8.37868C14.4339 8.94129 14.75 9.70435 14.75 10.5Z" stroke="#565656" stroke-width="2.75" stroke-linecap="round" stroke-linejoin="round"/>
</svg>
