<svg width="34" height="34" viewBox="0 0 34 34" fill="none" xmlns="http://www.w3.org/2000/svg">
<path d="M21.6429 9.5V5.75C21.6429 4.75544 21.2666 3.80161 20.5968 3.09835C19.927 2.39509 19.0186 2 18.0714 2H5.57143C4.62423 2 3.71582 2.39509 3.04605 3.09835C2.37627 3.80161 2 4.75544 2 5.75V28.25C2 29.2446 2.37627 30.1984 3.04605 30.9016C3.71582 31.6049 4.62423 32 5.57143 32H18.0714C19.0186 32 19.927 31.6049 20.5968 30.9016C21.2666 30.1984 21.6429 29.2446 21.6429 28.25V24.5" stroke="#565656" stroke-width="3.5" stroke-linecap="round" stroke-linejoin="round"/>
<path d="M10.5714 17.125H32M32 17.125L26.6429 11.5M32 17.125L26.6429 22.75" stroke="#565656" stroke-width="3.5" stroke-linecap="round" stroke-linejoin="round"/>
</svg>
