<svg width="34" height="32" viewBox="0 0 34 32" fill="none" xmlns="http://www.w3.org/2000/svg">
<path d="M12 1.8335H17L20.3334 5.16683H28.6667C29.5507 5.16683 30.3986 5.51802 31.0237 6.14314C31.6488 6.76826 32 7.61611 32 8.50016V20.1668C32 21.0509 31.6488 21.8987 31.0237 22.5239C30.3986 23.149 29.5507 23.5002 28.6667 23.5002H12C11.116 23.5002 10.2681 23.149 9.643 22.5239C9.01788 21.8987 8.66669 21.0509 8.66669 20.1668V5.16683C8.66669 4.28277 9.01788 3.43493 9.643 2.80981C10.2681 2.18469 11.116 1.8335 12 1.8335Z" stroke="#565656" stroke-width="2.5" stroke-linecap="round" stroke-linejoin="round"/>
<path d="M25.3333 23.5V26.8333C25.3333 27.7174 24.9821 28.5652 24.357 29.1904C23.7319 29.8155 22.8841 30.1667 22 30.1667H5.33333C4.44928 30.1667 3.60143 29.8155 2.97631 29.1904C2.35119 28.5652 2 27.7174 2 26.8333V11.8333C2 10.9493 2.35119 10.1014 2.97631 9.47631C3.60143 8.85119 4.44928 8.5 5.33333 8.5H8.66667" stroke="#565656" stroke-width="2.5" stroke-linecap="round" stroke-linejoin="round"/>
</svg>
